<svg xmlns="http://www.w3.org/2000/svg" width="20" height="21" viewBox="0 0 20 21" fill="none">
  <path d="M18 9.69189L11.5312 3.12939C11.25 2.84814 10.8125 2.84814 10.5312 3.12939C10.25 3.41064 10.25 3.84814 10.5312 4.12939L15.7812 9.47314H2.5C2.125 9.47314 1.8125 9.78564 1.8125 10.1606C1.8125 10.5356 2.125 10.8794 2.5 10.8794H15.8437L10.5312 16.2856C10.25 16.5669 10.25 17.0044 10.5312 17.2856C10.6562 17.4106 10.8437 17.4731 11.0312 17.4731C11.2187 17.4731 11.4062 17.4106 11.5312 17.2544L18 10.6919C18.2812 10.4106 18.2812 9.97314 18 9.69189Z" fill="#3B559E"/>
</svg>