<svg xmlns="http://www.w3.org/2000/svg" width="32" height="32" viewBox="0 0 32 32" fill="none">
  <path d="M12.1745 15.96L15.9622 12.1618L12.5575 8.74519L11.2225 10.0787C11.0678 10.2335 10.8798 10.3181 10.6587 10.3324C10.4376 10.3468 10.2347 10.2622 10.0501 10.0787C9.86655 9.89513 9.77479 9.69776 9.77479 9.48657C9.77479 9.27538 9.86655 9.07801 10.0501 8.89446L11.3735 7.57092L8.13631 4.33339L4.33863 8.13152L12.1745 15.96ZM25.1662 28.9632L28.9638 25.165L25.7283 21.9275L24.395 23.251C24.2336 23.4125 24.0434 23.4987 23.8245 23.5098C23.6056 23.5208 23.4044 23.4346 23.2209 23.251C23.0374 23.0675 22.9461 22.8718 22.9473 22.6639C22.9484 22.456 23.0396 22.2603 23.2209 22.0768L24.5443 20.7433L21.1612 17.3697L17.3718 21.1579L25.1662 28.9632ZM5.04344 29.6299C4.6587 29.6299 4.33919 29.5027 4.0849 29.2484C3.83062 28.9941 3.70348 28.6746 3.70348 28.2898V24.9444C3.70348 24.7664 3.73443 24.6 3.79635 24.4452C3.85826 24.2904 3.96108 24.1411 4.1048 23.9974L10.9904 17.111L3.11641 9.20461C2.8168 8.90496 2.66699 8.54782 2.66699 8.13317C2.66699 7.71853 2.8168 7.36083 3.11641 7.06008L7.065 3.11268C7.36461 2.81304 7.72172 2.66432 8.13631 2.66653C8.55091 2.66874 8.90801 2.82022 9.20762 3.12098L17.1562 11.0274L24.5642 3.6086C24.7466 3.42615 24.939 3.29457 25.1413 3.21386C25.3436 3.13314 25.5592 3.09278 25.7881 3.09278C26.0169 3.09278 26.2325 3.13314 26.4348 3.21386C26.6371 3.29457 26.8301 3.42615 27.0136 3.6086L29.7201 6.42319C29.9036 6.60563 30.0307 6.79803 30.1015 7.00037C30.1722 7.20272 30.2071 7.41833 30.206 7.64721C30.2049 7.8761 30.1695 8.08508 30.0998 8.27415C30.0302 8.46323 29.9041 8.64899 29.7217 8.83143L22.3751 16.2187L30.2192 24.1251C30.5177 24.4248 30.667 24.7819 30.667 25.1965C30.667 25.6112 30.5177 25.9683 30.2192 26.268L26.2706 30.2154C25.971 30.5161 25.6139 30.6665 25.1993 30.6665C24.7847 30.6665 24.4276 30.5167 24.128 30.217L16.2209 22.3421L9.33532 29.2285C9.19159 29.3723 9.04234 29.4751 8.88756 29.537C8.73277 29.5989 8.56638 29.6299 8.38838 29.6299H5.04344ZM5.36185 27.9713H8.22586L24.5111 11.6941L21.6355 8.82148L5.36185 25.107V27.9713ZM23.0932 10.2479L21.6371 8.82148L24.5094 11.6958L23.0932 10.2479Z" fill="black"/>
</svg>