<svg xmlns="http://www.w3.org/2000/svg" width="32" height="32" viewBox="0 0 32 32" fill="none">
  <g clip-path="url(#clip0_2029_18309)">
    <path d="M16 8.6665V9.33317M16 8.6665C16 6.54477 16.8429 4.50994 18.3431 3.00965C19.8434 1.50936 21.8783 0.666504 24 0.666504H24.6667V9.33317C24.6667 11.6317 23.7536 13.8361 22.1283 15.4614C20.5029 17.0867 18.2985 17.9998 16 17.9998M16 8.6665C16 6.54477 15.1571 4.50994 13.6569 3.00965C12.1566 1.50936 10.1217 0.666504 8 0.666504H7.33333V9.33317C7.33333 11.6317 8.24643 13.8361 9.87174 15.4614C11.4971 17.0867 13.7015 17.9998 16 17.9998M16 17.9998V30.6665M16 17.9998V29.9998M16 31.3332H10C7.87827 31.3332 5.84344 30.4903 4.34315 28.99C2.84285 27.4897 2 25.4549 2 23.3332H8C10.1217 23.3332 12.1566 24.176 13.6569 25.6763C15.1571 27.1766 16 29.2114 16 31.3332ZM16 31.3332H22C24.1217 31.3332 26.1566 30.4903 27.6569 28.99C29.1571 27.4897 30 25.4549 30 23.3332H24C21.8783 23.3332 19.8434 24.176 18.3431 25.6763C16.8429 27.1766 16 29.2114 16 31.3332Z" stroke="black" stroke-width="2"/>
  </g>
  <defs>
    <clipPath id="clip0_2029_18309">
      <rect width="32" height="32" fill="white"/>
    </clipPath>
  </defs>
</svg>