<svg xmlns="http://www.w3.org/2000/svg" width="32" height="32" viewBox="0 0 32 32" fill="none">
  <path d="M24.1998 2.3001C24.0998 1.8001 23.7998 1.3501 23.3498 1.1001C22.8998 0.850098 22.3998 0.800098 21.8998 0.950098C20.8498 1.3001 18.7998 2.0501 16.5998 3.4001C16.3998 3.5501 15.9498 3.8001 15.7498 5.1501C14.4998 4.8501 14.0498 5.2501 13.8498 5.4501C12.4998 6.6501 11.3998 7.9501 10.5998 9.3501C6.89979 15.7501 9.09979 23.8001 9.19979 24.1001V24.1501C8.74979 25.3501 8.34979 26.5501 7.94979 27.8501C7.74979 28.4001 7.59979 29.0001 7.34979 29.6501C7.14979 30.2501 7.44979 30.9001 8.04979 31.0501C8.14979 31.1001 8.29979 31.1001 8.39979 31.1001C8.84979 31.1001 9.29979 30.8001 9.44979 30.3501C9.64979 29.7001 9.84979 29.1001 10.0498 28.5501C10.4998 27.1501 10.8998 25.9001 11.3998 24.6501C13.6498 23.9001 19.5498 21.5501 22.5498 16.3001C25.5998 11.0501 24.6998 4.7501 24.1998 2.3001ZM20.6498 15.1501C18.7498 18.5001 15.3498 20.5001 12.8998 21.6001C13.5998 20.4001 14.4498 19.0501 15.6498 17.4001C15.9998 16.9001 15.8998 16.2001 15.3998 15.8501C14.8998 15.5001 14.1998 15.6001 13.8498 16.1001C12.5498 17.8501 11.5998 19.3501 10.8498 20.6501C10.5498 17.9501 10.5498 13.8501 12.5498 10.4501C13.1998 9.3501 14.0498 8.3001 15.0998 7.3001C15.3998 7.3501 15.8498 7.5501 16.2498 7.7001C16.5998 7.8501 16.9998 7.8501 17.3498 7.6501C17.6998 7.4501 17.8498 7.1001 17.8498 6.7001C17.8498 6.1501 17.8998 5.5001 17.9998 5.1501C19.5998 4.2001 21.0998 3.5501 22.0998 3.2001C22.4998 5.4501 23.0998 10.8501 20.6498 15.1501Z" fill="#111928"/>
</svg>