<svg xmlns="http://www.w3.org/2000/svg" width="32" height="32" viewBox="0 0 32 32" fill="none">
<path d="M20.5715 1.14307V14.8574L28.7772 25.3031C29.1769 25.8089 29.4259 26.4171 29.4956 27.0581C29.5653 27.699 29.4529 28.3465 29.1713 28.9265C28.8897 29.5064 28.4503 29.9952 27.9035 30.3367C27.3567 30.6782 26.7247 30.8587 26.08 30.8574H5.92003C5.27535 30.8587 4.64336 30.6782 4.09658 30.3367C3.5498 29.9952 3.11039 29.5064 2.82878 28.9265C2.54717 28.3465 2.43477 27.699 2.50448 27.0581C2.57419 26.4171 2.82319 25.8089 3.22289 25.3031L11.4286 14.8574V1.14307M8.00003 1.14307H24" stroke="black" stroke-width="2" stroke-linecap="round" stroke-linejoin="round"/>
</svg>